<?xml version="1.0" encoding="UTF-8" standalone="no"?>
<!DOCTYPE svg PUBLIC "-//W3C//DTD SVG 1.1//EN"
 "http://www.w3.org/Graphics/SVG/1.1/DTD/svg11.dtd">
<!-- Generated by graphviz version 13.1.0 (20250701.0955)
 -->
<!-- Title: RestaurantOwner Pages: 1 -->
<svg width="115pt" height="700pt"
 viewBox="0.00 0.00 115.00 700.00" xmlns="http://www.w3.org/2000/svg" xmlns:xlink="http://www.w3.org/1999/xlink">
<g id="graph0" class="graph" transform="scale(1 1) rotate(0) translate(4 696)">
<title>RestaurantOwner</title>
<!-- Node1 -->
<g id="Node000001" class="node">
<title>Node1</title>
<g id="a_Node000001"><a xlink:title=" ">
<polygon fill="#999999" stroke="none" points="106.5,-228 0,-228 0,0 106.5,0 106.5,-228"/>
<text xml:space="preserve" text-anchor="start" x="15" y="-214.5" font-family="Helvetica,sans-Serif" font-size="10.00">RestaurantOwner</text>
<text xml:space="preserve" text-anchor="start" x="4" y="-198.5" font-family="Helvetica,sans-Serif" font-size="10.00">+</text>
<text xml:space="preserve" text-anchor="start" x="14" y="-198.5" font-family="Helvetica,sans-Serif" font-size="10.00">restaurantId</text>
<text xml:space="preserve" text-anchor="start" x="4" y="-182.5" font-family="Helvetica,sans-Serif" font-size="10.00">+</text>
<text xml:space="preserve" text-anchor="start" x="14" y="-182.5" font-family="Helvetica,sans-Serif" font-size="10.00">isApproved</text>
<text xml:space="preserve" text-anchor="start" x="4" y="-166.5" font-family="Helvetica,sans-Serif" font-size="10.00">+</text>
<text xml:space="preserve" text-anchor="start" x="14" y="-166.5" font-family="Helvetica,sans-Serif" font-size="10.00">RestaurantOwner()</text>
<text xml:space="preserve" text-anchor="start" x="4" y="-150.5" font-family="Helvetica,sans-Serif" font-size="10.00">+</text>
<text xml:space="preserve" text-anchor="start" x="14" y="-150.5" font-family="Helvetica,sans-Serif" font-size="10.00">RestaurantOwner()</text>
<text xml:space="preserve" text-anchor="start" x="4" y="-134.5" font-family="Helvetica,sans-Serif" font-size="10.00">+</text>
<text xml:space="preserve" text-anchor="start" x="14" y="-134.5" font-family="Helvetica,sans-Serif" font-size="10.00">~RestaurantOwner()</text>
<text xml:space="preserve" text-anchor="start" x="4" y="-118.5" font-family="Helvetica,sans-Serif" font-size="10.00">+</text>
<text xml:space="preserve" text-anchor="start" x="14" y="-118.5" font-family="Helvetica,sans-Serif" font-size="10.00">restaurantId()</text>
<text xml:space="preserve" text-anchor="start" x="4" y="-102.5" font-family="Helvetica,sans-Serif" font-size="10.00">+</text>
<text xml:space="preserve" text-anchor="start" x="14" y="-102.5" font-family="Helvetica,sans-Serif" font-size="10.00">isApproved()</text>
<text xml:space="preserve" text-anchor="start" x="4" y="-86.5" font-family="Helvetica,sans-Serif" font-size="10.00">+</text>
<text xml:space="preserve" text-anchor="start" x="14" y="-86.5" font-family="Helvetica,sans-Serif" font-size="10.00">restaurant()</text>
<text xml:space="preserve" text-anchor="start" x="4" y="-70.5" font-family="Helvetica,sans-Serif" font-size="10.00">+</text>
<text xml:space="preserve" text-anchor="start" x="14" y="-70.5" font-family="Helvetica,sans-Serif" font-size="10.00">setRestaurantId()</text>
<text xml:space="preserve" text-anchor="start" x="4" y="-54.5" font-family="Helvetica,sans-Serif" font-size="10.00">+</text>
<text xml:space="preserve" text-anchor="start" x="14" y="-54.5" font-family="Helvetica,sans-Serif" font-size="10.00">setIsApproved()</text>
<text xml:space="preserve" text-anchor="start" x="4" y="-38.5" font-family="Helvetica,sans-Serif" font-size="10.00">+</text>
<text xml:space="preserve" text-anchor="start" x="14" y="-38.5" font-family="Helvetica,sans-Serif" font-size="10.00">setRestaurant()</text>
<text xml:space="preserve" text-anchor="start" x="4" y="-22.5" font-family="Helvetica,sans-Serif" font-size="10.00">+</text>
<text xml:space="preserve" text-anchor="start" x="14" y="-22.5" font-family="Helvetica,sans-Serif" font-size="10.00">toJson()</text>
<text xml:space="preserve" text-anchor="start" x="4" y="-6.5" font-family="Helvetica,sans-Serif" font-size="10.00">+</text>
<text xml:space="preserve" text-anchor="start" x="14" y="-6.5" font-family="Helvetica,sans-Serif" font-size="10.00">fromJson()</text>
<polygon fill="#666666" stroke="#666666" points="0,-210 0,-210 106.5,-210 106.5,-210 0,-210"/>
<polygon fill="#666666" stroke="#666666" points="0,-178 0,-178 12,-178 12,-178 0,-178"/>
<polygon fill="#666666" stroke="#666666" points="12,-178 12,-178 106.5,-178 106.5,-178 12,-178"/>
<polygon fill="none" stroke="#666666" points="0,0 0,-228 106.5,-228 106.5,0 0,0"/>
</a>
</g>
</g>
<!-- Node2 -->
<g id="Node000002" class="node">
<title>Node2</title>
<g id="a_Node000002"><a xlink:href="class_user.html" target="_top" xlink:title=" ">
<polygon fill="white" stroke="none" points="99.75,-604 6.75,-604 6.75,-264 99.75,-264 99.75,-604"/>
<text xml:space="preserve" text-anchor="start" x="42.75" y="-590.5" font-family="Helvetica,sans-Serif" font-size="10.00">User</text>
<text xml:space="preserve" text-anchor="start" x="10.75" y="-574.5" font-family="Helvetica,sans-Serif" font-size="10.00">+</text>
<text xml:space="preserve" text-anchor="start" x="20.75" y="-574.5" font-family="Helvetica,sans-Serif" font-size="10.00">id</text>
<text xml:space="preserve" text-anchor="start" x="10.75" y="-558.5" font-family="Helvetica,sans-Serif" font-size="10.00">+</text>
<text xml:space="preserve" text-anchor="start" x="20.75" y="-558.5" font-family="Helvetica,sans-Serif" font-size="10.00">username</text>
<text xml:space="preserve" text-anchor="start" x="10.75" y="-542.5" font-family="Helvetica,sans-Serif" font-size="10.00">+</text>
<text xml:space="preserve" text-anchor="start" x="20.75" y="-542.5" font-family="Helvetica,sans-Serif" font-size="10.00">email</text>
<text xml:space="preserve" text-anchor="start" x="10.75" y="-526.5" font-family="Helvetica,sans-Serif" font-size="10.00">+</text>
<text xml:space="preserve" text-anchor="start" x="20.75" y="-526.5" font-family="Helvetica,sans-Serif" font-size="10.00">userType</text>
<text xml:space="preserve" text-anchor="start" x="10.75" y="-510.5" font-family="Helvetica,sans-Serif" font-size="10.00">+</text>
<text xml:space="preserve" text-anchor="start" x="20.75" y="-510.5" font-family="Helvetica,sans-Serif" font-size="10.00">token</text>
<text xml:space="preserve" text-anchor="start" x="10.75" y="-494.5" font-family="Helvetica,sans-Serif" font-size="10.00">+</text>
<text xml:space="preserve" text-anchor="start" x="20.75" y="-494.5" font-family="Helvetica,sans-Serif" font-size="10.00">phoneNumber</text>
<text xml:space="preserve" text-anchor="start" x="10.75" y="-478.5" font-family="Helvetica,sans-Serif" font-size="10.00">+</text>
<text xml:space="preserve" text-anchor="start" x="20.75" y="-478.5" font-family="Helvetica,sans-Serif" font-size="10.00">city</text>
<text xml:space="preserve" text-anchor="start" x="10.75" y="-462.5" font-family="Helvetica,sans-Serif" font-size="10.00">+</text>
<text xml:space="preserve" text-anchor="start" x="20.75" y="-462.5" font-family="Helvetica,sans-Serif" font-size="10.00">location</text>
<text xml:space="preserve" text-anchor="start" x="10.75" y="-446.5" font-family="Helvetica,sans-Serif" font-size="10.00">+</text>
<text xml:space="preserve" text-anchor="start" x="20.75" y="-446.5" font-family="Helvetica,sans-Serif" font-size="10.00">User()</text>
<text xml:space="preserve" text-anchor="start" x="10.75" y="-430.5" font-family="Helvetica,sans-Serif" font-size="10.00">+</text>
<text xml:space="preserve" text-anchor="start" x="20.75" y="-430.5" font-family="Helvetica,sans-Serif" font-size="10.00">User()</text>
<text xml:space="preserve" text-anchor="start" x="10.75" y="-414.5" font-family="Helvetica,sans-Serif" font-size="10.00">+</text>
<text xml:space="preserve" text-anchor="start" x="20.75" y="-414.5" font-family="Helvetica,sans-Serif" font-size="10.00">id()</text>
<text xml:space="preserve" text-anchor="start" x="10.75" y="-398.5" font-family="Helvetica,sans-Serif" font-size="10.00">+</text>
<text xml:space="preserve" text-anchor="start" x="20.75" y="-398.5" font-family="Helvetica,sans-Serif" font-size="10.00">username()</text>
<text xml:space="preserve" text-anchor="start" x="10.75" y="-382.5" font-family="Helvetica,sans-Serif" font-size="10.00">+</text>
<text xml:space="preserve" text-anchor="start" x="20.75" y="-382.5" font-family="Helvetica,sans-Serif" font-size="10.00">email()</text>
<text xml:space="preserve" text-anchor="start" x="10.75" y="-366.5" font-family="Helvetica,sans-Serif" font-size="10.00">+</text>
<text xml:space="preserve" text-anchor="start" x="20.75" y="-366.5" font-family="Helvetica,sans-Serif" font-size="10.00">userType()</text>
<text xml:space="preserve" text-anchor="start" x="10.75" y="-350.5" font-family="Helvetica,sans-Serif" font-size="10.00">+</text>
<text xml:space="preserve" text-anchor="start" x="20.75" y="-350.5" font-family="Helvetica,sans-Serif" font-size="10.00">token()</text>
<text xml:space="preserve" text-anchor="start" x="10.75" y="-334.5" font-family="Helvetica,sans-Serif" font-size="10.00">+</text>
<text xml:space="preserve" text-anchor="start" x="20.75" y="-334.5" font-family="Helvetica,sans-Serif" font-size="10.00">phoneNumber()</text>
<text xml:space="preserve" text-anchor="start" x="10.75" y="-318.5" font-family="Helvetica,sans-Serif" font-size="10.00">+</text>
<text xml:space="preserve" text-anchor="start" x="20.75" y="-318.5" font-family="Helvetica,sans-Serif" font-size="10.00">city()</text>
<text xml:space="preserve" text-anchor="start" x="10.75" y="-302.5" font-family="Helvetica,sans-Serif" font-size="10.00">+</text>
<text xml:space="preserve" text-anchor="start" x="20.75" y="-302.5" font-family="Helvetica,sans-Serif" font-size="10.00">location()</text>
<text xml:space="preserve" text-anchor="start" x="20.75" y="-286.5" font-family="Helvetica,sans-Serif" font-size="10.00">and 10 more...</text>
<text xml:space="preserve" text-anchor="start" x="10.75" y="-270.5" font-family="Helvetica,sans-Serif" font-size="10.00">+</text>
<text xml:space="preserve" text-anchor="start" x="20.75" y="-270.5" font-family="Helvetica,sans-Serif" font-size="10.00">fromJsonObject()</text>
<polygon fill="#bfbfbf" stroke="#bfbfbf" points="6.75,-586 6.75,-586 99.75,-586 99.75,-586 6.75,-586"/>
<polygon fill="#bfbfbf" stroke="#bfbfbf" points="6.75,-458 6.75,-458 18.75,-458 18.75,-458 6.75,-458"/>
<polygon fill="#bfbfbf" stroke="#bfbfbf" points="18.75,-458 18.75,-458 99.75,-458 99.75,-458 18.75,-458"/>
<polygon fill="none" stroke="#bfbfbf" points="6.75,-264 6.75,-604 99.75,-604 99.75,-264 6.75,-264"/>
</a>
</g>
</g>
<!-- Node2&#45;&gt;Node1 -->
<g id="edge1_Node000001_Node000002" class="edge">
<title>Node2&#45;&gt;Node1</title>
<g id="a_edge1_Node000001_Node000002"><a xlink:title=" ">
<path fill="none" stroke="#63b8ff" d="M53.25,-252.98C53.25,-244.45 53.25,-236.01 53.25,-227.74"/>
<polygon fill="none" stroke="#63b8ff" points="49.75,-252.71 53.25,-262.71 56.75,-252.71 49.75,-252.71"/>
</a>
</g>
</g>
<!-- Node3 -->
<g id="Node000003" class="node">
<title>Node3</title>
<g id="a_Node000003"><a xlink:title=" ">
<polygon fill="white" stroke="none" points="75.25,-692 31.25,-692 31.25,-640 75.25,-640 75.25,-692"/>
<text xml:space="preserve" text-anchor="start" x="35.25" y="-678.5" font-family="Helvetica,sans-Serif" font-size="10.00">QObject</text>
<text xml:space="preserve" text-anchor="start" x="51.75" y="-662.5" font-family="Helvetica,sans-Serif" font-size="10.00"> </text>
<text xml:space="preserve" text-anchor="start" x="51.75" y="-646.5" font-family="Helvetica,sans-Serif" font-size="10.00"> </text>
<polygon fill="#bfbfbf" stroke="#bfbfbf" points="31.25,-674 31.25,-674 75.25,-674 75.25,-674 31.25,-674"/>
<polygon fill="#bfbfbf" stroke="#bfbfbf" points="31.25,-658 31.25,-658 75.25,-658 75.25,-658 31.25,-658"/>
<polygon fill="none" stroke="#bfbfbf" points="31.25,-640 31.25,-692 75.25,-692 75.25,-640 31.25,-640"/>
</a>
</g>
</g>
<!-- Node3&#45;&gt;Node2 -->
<g id="edge2_Node000002_Node000003" class="edge">
<title>Node3&#45;&gt;Node2</title>
<g id="a_edge2_Node000002_Node000003"><a xlink:title=" ">
<path fill="none" stroke="#63b8ff" d="M53.25,-628.87C53.25,-621.29 53.25,-612.81 53.25,-603.77"/>
<polygon fill="none" stroke="#63b8ff" points="49.75,-628.87 53.25,-638.87 56.75,-628.87 49.75,-628.87"/>
</a>
</g>
</g>
</g>
</svg>
